#!OML:ASF F:\VICON\USERDATA\INSTALL\rory3\rory3.ASF
:FULLY-SPECIFIED
:DEGREES
1
root 0.6635756214674293 18.04008897397364 -17.99428282827202 -1.793524392719107 -3.1659368638561993 -5.658900664543747
lfemur -25.68378963358014 2.0402185955485583 -14.117708419685936
ltibia 67.51927911825346
lfoot -4.512922439487766 -3.446738967432541
ltoes -6.189815334585333
rfemur -9.513951359441322 7.674706940315472 33.22148860982875
rtibia 30.75550413958184
rfoot -15.4844928939965 -3.824684337101238
rtoes 11.010789185293586
lowerback 13.2196720542793 0.13723034169999368 3.421805074437011
upperback -0.1861738029041246 0.9053431362662299 2.4919157246881403
thorax -7.624227303587836 0.3590476012600036 0.5382681691354033
lowerneck -16.162201827792877 -3.149174143434023 -2.2760950987016897
upperneck 22.00649185328699 -3.7424801881319523 -0.2355868804534187
head 9.677702547154462 -1.9582946570325672 -0.18943438239161492
lclavicle -4.533851672633998e-16 -7.764982089431184e-16
lhumerus -31.84039886652996 3.7618425191220046 80.8295938976357
lradius 26.825295647179747
lwrist 6.4336766705348865
lhand -26.97750619483852 21.86889727267626
lfingers 7.12502
lthumb -0.3983751947902312 51.84829724099884
rclavicle -4.533851672633998e-16 -7.764982089431184e-16
rhumerus -28.272699891981052 -19.505298023296795 -77.82890164447895
rradius 23.219507133075208
rwrist 5.002667978784958
rhand -14.591724879715578 14.635730007657681
rfingers 7.12502
rthumb 11.55847512572894 -15.025570337494656
2
root 0.6758173330124115 17.95289525370998 -17.302783181215048 -1.5933756698940924 -3.659225209536433 -6.055309658757067
lfemur -28.712387720167534 1.9316289239682374 -13.857108798788454
ltibia 62.20168219589884
lfoot -6.997629549133667 -0.5967109933709427
ltoes -7.335463664495336
rfemur -7.309562872369787 7.568777276017412 33.854087658477496
rtibia 31.147603929703763
rfoot -17.997990402454548 -4.088653857571654
rtoes 10.455989966157269
lowerback 12.925374641065007 0.43833635393500014 4.25747311241567
upperback -0.09771865292324015 1.4060570507785397 2.422546606380183
thorax -7.334701499932498 0.5743556321835627 -0.10037313065535047
lowerneck -15.708409868845125 -3.14369431056619 -2.1906464178476392
upperneck 21.625496266892725 -3.7562899447474742 -0.2728535242915576
head 9.456320188908583 -1.9626844570461688 -0.20594300124036757
lclavicle -4.533851216596664e-16 -7.764981645236235e-16
lhumerus -32.895797275670716 4.4875812912500255 80.98199309381242
lradius 26.012597317200843
lwrist 5.621098978925452
lhand -26.65930762905799 21.37739822595668
lfingers 7.12502
lthumb -0.09100402932638163 51.35719819277433
rclavicle -4.533851216596664e-16 -7.764981645236235e-16
rhumerus -26.384202848460347 -16.600501806329824 -79.38939820490931
rradius 25.393702536867888
rwrist 2.4100333106836356
rhand -14.758623624009534 14.92412886987854
rfingers 7.12502
rthumb 11.397476380974776 -14.746071449234645
3
root 0.6885560328467146 17.960294720796576 -16.59148354426403 -1.0023794411177525 -4.568952158624564 -6.643038167545929
lfemur -30.377986667872747 1.3803405912900808 -13.152009824518295
ltibia 52.75668766234244
lfoot -6.698829896714593 3.223491610225758
ltoes -7.7599630456735404
rfemur -4.238034980438302 7.608327150679822 34.49388669629836
rtibia 29.279304929742516
rfoot -19.328889083181345 -3.737074496254122
rtoes 8.807132286876135
lowerback 12.604277463412576 0.9402720403838047 5.237610811201559
upperback -0.059233705889974106 2.1890437896165054 2.3615973810541098
thorax -7.050005626272867 0.9252044235336737 -0.8537259454397392
lowerneck -16.379597975600813 -3.2668505543622244 -1.9736397679689086
upperneck 21.68359559384681 -3.969086194405919 -0.2656865927867953
head 9.598415284020103 -2.039470958878608 -0.2794223047490728
lclavicle -4.533852128671619e-16 -7.764982351553687e-16
lhumerus -33.64649614410162 5.129490205209155 81.13129230633987
lradius 25.169399049896523
lwrist 5.238780065026366
lhand -26.5725080202907 20.887299176521747
lfingers 7.12502
lthumb -0.007210330401097309 50.86709914261177
rclavicle -4.533852128671619e-16 -7.764982351553687e-16
rhumerus -24.549005721497565 -13.632905671149715 -80.77729514577527
rradius 27.616697837498528
rwrist 0.43569837101422104
rhand -18.456595801355725 22.725298093032034
rfingers 7.12502
rthumb 7.829664197846126 -7.109691823840023
4
root 0.7063226142075785 17.93729637714905 -15.877183908844218 -0.5188935263041394 -4.874211134890757 -6.808997746465855
lfemur -30.424586638431755 -1.1304818149539662 -12.282011090133054
ltibia 41.32299427977779
lfoot -5.5103612792095875 3.5115512033139185
ltoes -6.544704817238639
rfemur -0.99687620492886 7.187368484740903 34.57408657568758
rtibia 27.0472061245113
rfoot -20.04988836847998 -3.3762851516675414
rtoes 9.076551907675926
lowerback 12.27968031652381 1.1870244114368378 5.788809517070912
upperback -0.12832853588477494 2.5670622151590203 2.2491288105467504
thorax -6.8932878977167125 1.0914029035833488 -1.3399418896929687
lowerneck -16.553094901289302 -3.2506510484390696 -1.7390233899469383
upperneck 21.777594504925712 -3.968286208504947 -0.4183161340876511
head 9.65470334104915 -2.036011116498868 -0.3750520968469543
lclavicle -4.533851577187003e-16 -7.764982205581056e-16
lhumerus -34.8268943648234 6.314668200015404 80.9344933443479
lradius 24.349500734712926
lwrist 4.765521409471121
lhand -26.5148082803613 19.491401883915707
lfingers 7.12502
lthumb 0.04852751946402445 49.4712018479333
rclavicle -4.533851577187003e-16 -7.764982205581056e-16
rhumerus -22.967708197049955 -10.969009140449394 -81.62139328525575
rradius 29.48709388351721
rwrist -1.1832392995496068
rhand -18.825693024356934 22.174900264438527
rfingers 7.12502
rthumb 7.473436975213967 -7.673089582858635
5
root 0.7195813017892583 17.897399250560518 -15.134384287970795 0.2431236111655828 -5.966467471837973 -7.606695722510761
lfemur -29.60458715649242 -4.929150326223594 -9.541025077532337
ltibia 28.793401531482576
lfoot -3.9093031416524244 5.430838492136169
ltoes -5.370196529399756
rfemur 2.122700654025376 7.557317312335224 35.37358537333964
rtibia 24.925307260293636
rfoot -20.500287922014692 -3.1722255223642364
rtoes 6.556875454046724
lowerback 11.6936854672422 1.7004310221598187 6.711097351679497
upperback -0.29401357214311136 3.341888987983477 2.312997998759654
thorax -6.645111494749206 1.4440496784901975 -1.8980495299842988
lowerneck -16.408297467054762 -3.289029877903926 -1.5725459600044887
upperneck 21.609796448765717 -4.0830741854706085 -0.35629272685292257
head 9.566556383736831 -2.0689396163730995 -0.391151725138487
lclavicle -4.533852202541528e-16 -7.76498250851242e-16
lhumerus -35.657793112364665 7.228186654440394 80.7339944018713
lradius 23.3288028321542
lwrist 4.149983158107227
lhand -26.30210923906174 20.22230046631112
lfingers 7.12502
lthumb 0.25395976068841786 50.201900431801455
rclavicle -4.533852202541528e-16 -7.76498250851242e-16
rhumerus -21.719310151441682 -9.829920623930184 -81.98599248162417
rradius 30.772291166634837
rwrist -1.5795884844352637
rhand -18.430695996219633 23.24539604116336
rfingers 7.12502
rthumb 7.854634003166075 -6.588643896369934
6
root 0.7408568004684826 17.868001367811072 -14.389284668271403 0.5215628344087486 -6.723334933564361 -7.523225934294051
lfemur -27.72548834367246 -8.46075964518967 -7.870527507658133
ltibia 16.92280840178066
lfoot -6.067730630845525 7.744285224170336
ltoes -0.49805663185155113
rfemur 5.068568632200531 6.904329381720785 35.036485880295814
rtibia 23.57250798440242
rfoot -20.535587887023105 -2.734286317928819
rtoes 4.766007974640239
lowerback 11.603186262702977 2.1305381827878906 6.714697343227257
upperback -0.3569336871255905 3.8992766664479444 2.1688398310318924
thorax -6.606542053769049 1.7138572109944277 -2.13854851314186
lowerneck -16.447396774227208 -3.3335885188876166 -1.3429095051030953
upperneck 21.398298898838192 -4.222831722370348 -0.27797447535000164
head 9.496248810638372 -2.106287914894283 -0.41808610327714807
lclavicle -4.533851999020265e-16 -7.764982405704071e-16
lhumerus -36.511891824935354 8.810943976585161 80.00599824165708
lradius 21.884405800258612
lwrist 3.0174763753601748
lhand -26.28770930396671 19.197202454526284
lfingers 7.12502
lthumb 0.26786169580650143 49.1768024184947
rclavicle -4.533851999020265e-16 -7.764982405704071e-16
rhumerus -20.905811424989928 -8.92181180659685 -82.22509195461289
rradius 32.239088065854375
rwrist -2.23768713101847
rhand -19.06439122844902 22.440599216214135
rfingers 7.12502
rthumb 7.242958772164647 -7.415450607648206
7
root 0.7742480136615915 17.81290533585548 -13.594685073836855 0.5476946676581229 -7.7045316429674475 -7.4479861251958726
lfemur -24.794790195233645 -7.7632317547998735 -8.294956890227247
ltibia 8.312843384937377
lfoot -5.525011262167881 7.429345669052743
ltoes -0.5667605316971787
rfemur 7.644346864377752 6.797479720338304 34.5198866571976
rtibia 24.050607728491435
rfoot -20.465487956510685 -1.3771787832634939
rtoes 3.9524791196582747
lowerback 11.226189576390405 2.454766042382976 6.899026910449483
upperback -0.239321210666175 4.302534986865577 2.027541626953563
thorax -6.210167798759544 1.9200753250488383 -2.4273972918739197
lowerneck -16.472996320611216 -3.173573399268898 -1.2979201996423142
upperneck 21.13960189568807 -4.079934240809296 0.01916008489876264
head 9.415581595137695 -2.003182612069138 -0.3020797816328961
lclavicle -4.533852301732834e-16 -7.764982346844547e-16
lhumerus -37.42139045399878 10.38619131143603 79.1447027845245
lradius 20.8102080076373
lwrist 2.152418832836788
lhand -26.19380972720118 18.091804598485943
lfingers 7.12502
lthumb 0.35858927237059657 48.07120456120082
rclavicle -4.533852301732834e-16 -7.764982346844547e-16
rhumerus -20.018812813603745 -8.57846225375479 -82.51049132554965
rradius 32.631887235484484
rwrist -2.012067595017702
rhand -19.6121871069645 22.991697042046045
rfingers 7.12502
rthumb 6.714182894828566 -6.8818427301368095
